<svg id="Layer_1" data-name="Layer 1" xmlns="http://www.w3.org/2000/svg" viewBox="0 0 226.77 180.56" style="cursor: default;"><defs><style>.cls-1{fill:#0a3b7c;}</style></defs><path class="cls-1" d="M37.21,92.86c4.21-.66-9.54,7.82-21,17C3.37,120.11-.14,124.09,1.45,131.28c1.66,7.52,11.49,18.88,16.7,18.74,5.55-.14,12.38-5.13,12.38-5.13s11.66-7.9,15-10.17c3.18-2.17-1.3,7.95,2,11.44,4.69,4.93,6.58,3.92,10.12,2.81s7.8-2.81,17.77-6.28c10.9-3.79,16.71-6.26,19.26-6.5s3.2,1.84,5.25,4.56c0,0,6.47,10.84,8.44,11.41,4.15,1.77,12.93-1.33,26-7.73s16.08-8.12,16.08-8.12l10.22-6.46a38.65,38.65,0,0,0-4.85,9.36c-1.47,4.89-3.11,8.28-2.1,12.1a8.73,8.73,0,0,0,7.59,6.47c3.39.38,8.26-2.15,21.31-9.77,9-5.22,22.84-15.66,24.61-16.95s.45.7.45.7c-1.57,2.83-3.46,5.7-10,13.89-5.94,7.43,2.77,7.59,6.78,3.23C207.31,146.16,226,129,226.77,119c0-8.4-8.25-9.21-13.38-6.46s-8.82,5.49-14.45,8.81c-5.1,3.07-9,5.28-11.71,6.94s-.72-2.46-.72-2.46c5.25-6.94,17.45-20.93,20-27.38s-6.79-16.48-14.6-12A117.69,117.69,0,0,1,172.32,95c-7.16,2.51-13.36,5.54-8.72-.11A143.18,143.18,0,0,1,173.36,84c6.06-6.36,13.43-13.8,14.73-18.29,2-6.78-1.65-9.78-3.32-11-3-2.17-8.09-2.56-9.27-5.64-.84-2.16-1.67-8.51-2.64-11.08-1.82-4.82-5.55-7.19-11-7.37-6.87-.22-13.59,4.12-13.59,4.12s-13,9.44-18.24,13c-7.43,5.08,5.2-8.88,5.2-8.88s13.66-13.66,9.25-19.75c-4.63-6.43-6.67-9.34-10-12.55-5.35-5.21-19.4,6-19.4,6S109.88,3.3,106.42,1c-2.35-1.58-7.66-3.15-33.16,11.27-8.05,4.55-13.86,8.45-25.1,15.47-5.78,3.61-12.64,8-22.29,14.21,0,0-3.15,1.63-1.23-1a93.38,93.38,0,0,1,8.51-10.27c10.11-11.23,23-17.69,26.94-20.4,1.28-.89,2.91-5.86.74-5.12C54.44,6.87,35.15,16.62,22.26,30.28c-9,9.1-19.51,20.44-18.21,30.41.47,3.6,3.47,6.07,7.37,6.29,4.38.24,7.92-.34,17.34-5,5.28-2.6,14.58-8.16,15.17-7.3.4.6-2.09,2.25-6.72,5.39-3.26,2.19-5.36,3.47-14.52,9.28C15.33,74,1.55,82.83.29,88.48s1.49,13.78,9.83,11.85Z"/><path class="cls-1" d="M159.82,173.61c-20-.75-51.78-1.68-58.07-4.33-4.39-1.95,3.47-10.67,1.3-13.49s-8.73-14.7-11.39-14.12c-4.54,1-9.15,15.91-10.67,26.11-.48,3.23-6.28,2.68-17.23,3.56-6.58.53-22.12,1.29-22.12,1.29L28,173.56c-1.77.14-9.09.52-13.78,1.16s-2.8,5.83,3.19,5.68c59.32,0,68.43,1.34,71.17-4.18,3.17,2.57,7.81,4.22,19.64,4.1,2.06,0,35.35,0,39.61-.06,15-.09,41.41-.63,46.67-.87s6.48-3.78-.69-4Z"/></svg>